<?xml version="1.0" standalone="no"?><!DOCTYPE svg PUBLIC "-//W3C//DTD SVG 1.1//EN" "http://www.w3.org/Graphics/SVG/1.1/DTD/svg11.dtd"><svg t="1692674604232" class="icon" viewBox="0 0 1049 1024" version="1.1" xmlns="http://www.w3.org/2000/svg" p-id="51180" width="131.125" height="128" xmlns:xlink="http://www.w3.org/1999/xlink"><path d="M461.429143 887.378908v-1.420429 1.420429z m56.785505-57.501155c-31.232621 0-56.785504 24.846129-56.785505 56.080726v0.70972c0 6.388468 4.96804 11.354531 11.356508 11.354531 6.38748 0 11.359473-4.966063 11.359473-11.354531v-0.70972c0-18.45865 14.906096-34.075454 34.069524-34.075454 19.16837 0 34.075454 15.616805 34.075454 34.075454v0.70972c0 6.388468 4.971994 11.354531 11.360462 11.354531 6.386491 0 11.354531-4.966063 11.35453-11.354531v-0.70972c0-30.523889-25.555849-56.080727-56.790446-56.080726z m-132.031636-120.345968c-15.617793-3.551565-39.042506-2.840857-44.009557 13.485667-2.841845 9.939045 13.485668 11.355519 28.391764 14.906096 12.070182 2.841845 18.45865 9.230313 17.038221 11.35552-2.840857 3.551565-20.589787-3.546623-36.916311 2.131137-15.617793 5.67776-12.775948 19.87809-3.546623 23.425701 9.228336 3.550577 24.135421-0.711697 58.915653 4.971993 17.747941 2.835914 28.396706-2.841845 30.528832-13.492587 4.256343-24.134432-28.398683-51.816476-50.401979-56.783527zM597.71811 767.027997c2.132125 10.649753 12.07117 16.327513 30.523889 13.485668 34.785174-5.676771 49.692259-1.415486 58.920595-4.967051 9.229325-3.547611 12.065239-18.457661-3.550576-23.425701-15.617793-5.67776-33.360792 1.420428-36.912358-2.130148-2.130148-2.836903 4.96804-9.229325 17.037233-12.066228 14.906096-3.550577 31.234597-4.971994 28.393741-14.906096-4.96804-16.326524-27.683032-17.037233-44.010545-13.49061-22.004284 4.971994-54.658322 32.654037-50.401979 57.499178z m425.206275-296.720274L825.583686 288.582841c-6.38748-6.38748-15.616805-9.228336-24.840198-9.228337H234.980041c-9.228336 0-17.742011 3.545634-24.135421 9.228337L12.090412 470.306735c-7.813839 7.0972-12.070182 16.327513-12.070181 26.972324V942.362435c0 44.721254 36.20066 81.636576 81.634599 81.636577h871.706126c44.719277 0 81.634599-36.915323 81.6346-81.636577V497.279059c0-9.934102-4.971005-19.874136-12.069194-26.972324z m-356.346635-2.840856c-12.779902 0-23.428666 10.649753-23.428666 24.136409 0 66.727515-56.785504 122.808242-124.224716 122.808242-67.435258 0-124.223728-56.080727-124.223728-122.808242 0-12.776936-10.650742-24.136409-23.425701-24.136409H94.430778l147.647451-134.873481h552.271848l146.233943 134.873481H666.579727z m313.757507 48.270842V942.362435c0 15.617793-12.069193 26.978255-26.975289 26.978255H81.652853c-15.616805 0-28.396706-12.07117-28.396706-26.978255V515.73672h295.304788c5.676771 36.916311 23.423724 71.696543 51.816476 97.963101 32.654037 31.232621 74.5374 47.560133 118.546957 47.560133 44.013511 0 85.897861-17.037233 118.546956-47.560133 27.686986-26.976278 46.145636-61.047778 51.822407-97.963101h291.041526z m0 0" fill="#386487" p-id="51181"></path><path d="M461.429143 887.378908v-1.420429 1.420429z m56.785505-57.501155c-31.232621 0-56.785504 24.846129-56.785505 56.080726v0.70972c0 6.388468 4.96804 11.354531 11.356508 11.354531 6.38748 0 11.359473-4.966063 11.359473-11.354531v-0.70972c0-18.45865 14.906096-34.075454 34.069524-34.075454 19.16837 0 34.075454 15.616805 34.075454 34.075454v0.70972c0 6.388468 4.971994 11.354531 11.360462 11.354531 6.386491 0 11.354531-4.966063 11.35453-11.354531v-0.70972c0-30.523889-25.555849-56.080727-56.790446-56.080726z m-132.031636-120.345968c-15.617793-3.551565-39.042506-2.840857-44.009557 13.485667-2.841845 9.939045 13.485668 11.355519 28.391764 14.906096 12.070182 2.841845 18.45865 9.230313 17.038221 11.35552-2.840857 3.551565-20.589787-3.546623-36.916311 2.131137-15.617793 5.67776-12.775948 19.87809-3.546623 23.425701 9.228336 3.550577 24.135421-0.711697 58.915653 4.971993 17.747941 2.835914 28.396706-2.841845 30.528832-13.492587 4.256343-24.134432-28.398683-51.816476-50.401979-56.783527zM597.71811 767.027997c2.132125 10.649753 12.07117 16.327513 30.523889 13.485668 34.785174-5.676771 49.692259-1.415486 58.920595-4.967051 9.229325-3.547611 12.065239-18.457661-3.550576-23.425701-15.617793-5.67776-33.360792 1.420428-36.912358-2.130148-2.130148-2.836903 4.96804-9.229325 17.037233-12.066228 14.906096-3.550577 31.234597-4.971994 28.393741-14.906096-4.96804-16.326524-27.683032-17.037233-44.010545-13.49061-22.004284 4.971994-54.658322 32.654037-50.401979 57.499178z m425.206275-296.720274L825.583686 288.582841c-6.38748-6.38748-15.616805-9.228336-24.840198-9.228337H234.980041c-9.228336 0-17.742011 3.545634-24.135421 9.228337L12.090412 470.306735c-7.813839 7.0972-12.070182 16.327513-12.070181 26.972324V942.362435c0 44.721254 36.20066 81.636576 81.634599 81.636577h871.706126c44.719277 0 81.634599-36.915323 81.6346-81.636577V497.279059c0-9.934102-4.971005-19.874136-12.069194-26.972324z m-356.346635-2.840856c-12.779902 0-23.428666 10.649753-23.428666 24.136409 0 66.727515-56.785504 122.808242-124.224716 122.808242-67.435258 0-124.223728-56.080727-124.223728-122.808242 0-12.776936-10.650742-24.136409-23.425701-24.136409H94.430778l147.647451-134.873481h552.271848l146.233943 134.873481H666.579727z m313.757507 48.270842V942.362435c0 15.617793-12.069193 26.978255-26.975289 26.978255H81.652853c-15.616805 0-28.396706-12.07117-28.396706-26.978255V515.73672h295.304788c5.676771 36.916311 23.423724 71.696543 51.816476 97.963101 32.654037 31.232621 74.5374 47.560133 118.546957 47.560133 44.013511 0 85.897861-17.037233 118.546956-47.560133 27.686986-26.976278 46.145636-61.047778 51.822407-97.963101h291.041526z m0 0M248.869992 203.500465l-90.075126-85.492589c-9.647447-9.18089-10.028007-24.447777-0.849094-34.100166 9.185832-9.648435 24.452719-10.032949 34.100166-0.848106l89.997037 85.487647c9.652389 9.165074 10.047776 24.411203 0.887645 34.06557-9.160132 9.647447-24.411203 10.047776-34.060628 0.887644m248.119284-37.760462a24.017793 24.017793 0 0 1-7.464909-16.845471l-3.250083-124.134765c-0.344975-13.32257 10.177266-24.406261 23.498848-24.752225 13.323559-0.349918 24.408238 10.171335 24.753213 23.494894l3.176936 124.134765a24.083032 24.083032 0 0 1-14.280396 22.612192A24.083032 24.083032 0 0 1 497.062423 165.740003M730.554359 199.064221a24.100825 24.100825 0 0 1-7.502472-16.850412 24.117629 24.117629 0 0 1 6.614827-17.215157l85.49259-90.143331c9.18089-9.648435 24.447777-10.032949 34.100166-0.848106 9.648435 9.178913 10.028995 24.444811 0.848105 34.099178l-85.487647 90.070184a24.100825 24.100825 0 0 1-16.850412 7.502471 24.108732 24.108732 0 0 1-17.215157-6.614827" fill="#386487" p-id="51182"></path></svg>