<?xml version="1.0" standalone="no"?><!DOCTYPE svg PUBLIC "-//W3C//DTD SVG 1.1//EN" "http://www.w3.org/Graphics/SVG/1.1/DTD/svg11.dtd"><svg t="1692768743515" class="icon" viewBox="0 0 1024 1024" version="1.1" xmlns="http://www.w3.org/2000/svg" p-id="9516" xmlns:xlink="http://www.w3.org/1999/xlink" width="48" height="48"><path d="M512 1024C228.693333 1024 0 795.306667 0 512S228.693333 0 512 0s512 228.693333 512 512-228.693333 512-512 512z m0-948.906667C269.653333 75.093333 75.093333 269.653333 75.093333 512 75.093333 754.346667 273.066667 948.906667 512 948.906667c242.346667 0 436.906667-197.973333 436.906667-436.906667 0-242.346667-194.56-436.906667-436.906667-436.906667zM563.2 512l157.013333-157.013333c13.653333-13.653333 13.653333-37.546667 0-51.2-13.653333-13.653333-37.546667-13.653333-51.2 0L512 460.8l-157.013333-157.013333c-13.653333-13.653333-37.546667-13.653333-51.2 0-13.653333 13.653333-13.653333 37.546667 0 51.2l157.013333 157.013333-157.013333 157.013333c-13.653333 13.653333-13.653333 37.546667 0 51.2 6.826667 6.826667 17.066667 10.24 27.306666 10.24 10.24 0 17.066667-3.413333 27.306667-10.24l157.013333-157.013333 157.013334 160.426667c6.826667 6.826667 17.066667 10.24 27.306666 10.24 10.24 0 17.066667-3.413333 27.306667-10.24 13.653333-13.653333 13.653333-37.546667 0-51.2L563.2 512z" p-id="9517" fill="#ffffff"></path></svg>