<?xml version="1.0" standalone="no"?><!DOCTYPE svg PUBLIC "-//W3C//DTD SVG 1.1//EN" "http://www.w3.org/Graphics/SVG/1.1/DTD/svg11.dtd"><svg t="1692768706455" class="icon" viewBox="0 0 1024 1024" version="1.1" xmlns="http://www.w3.org/2000/svg" p-id="2300" xmlns:xlink="http://www.w3.org/1999/xlink" width="48" height="48"><path d="M145.066667 85.333333h153.6c25.6 0 42.666667-17.066667 42.666666-42.666666S324.266667 0 298.666667 0H34.133333C25.6 0 17.066667 8.533333 8.533333 17.066667 0 25.6 0 34.133333 0 42.666667v256c0 25.6 17.066667 42.666667 42.666667 42.666666s42.666667-17.066667 42.666666-42.666666V145.066667l230.4 230.4c17.066667 17.066667 42.666667 17.066667 59.733334 0 17.066667-17.066667 17.066667-42.666667 0-59.733334L145.066667 85.333333z m170.666666 563.2L162.133333 802.133333l-76.8 76.8V725.333333C85.333333 699.733333 68.266667 682.666667 42.666667 682.666667s-42.666667 17.066667-42.666667 42.666666v256c0 25.6 17.066667 42.666667 42.666667 42.666667h256c25.6 0 42.666667-17.066667 42.666666-42.666667s-17.066667-42.666667-42.666666-42.666666H145.066667l76.8-76.8 153.6-153.6c17.066667-17.066667 17.066667-42.666667 0-59.733334-17.066667-17.066667-42.666667-17.066667-59.733334 0z m665.6 34.133334c-25.6 0-42.666667 17.066667-42.666666 42.666666v153.6l-76.8-76.8-153.6-153.6c-17.066667-17.066667-42.666667-17.066667-59.733334 0-17.066667 17.066667-17.066667 42.666667 0 59.733334l153.6 153.6 76.8 76.8H725.333333c-25.6 0-42.666667 17.066667-42.666666 42.666666s17.066667 42.666667 42.666666 42.666667h256c25.6 0 42.666667-17.066667 42.666667-42.666667v-256c0-25.6-17.066667-42.666667-42.666667-42.666666z m0-682.666667h-256c-25.6 0-42.666667 17.066667-42.666666 42.666667s17.066667 42.666667 42.666666 42.666666h153.6l-76.8 76.8-153.6 153.6c-17.066667 17.066667-17.066667 42.666667 0 59.733334 17.066667 17.066667 42.666667 17.066667 59.733334 0l153.6-153.6 76.8-76.8v153.6c0 25.6 17.066667 42.666667 42.666666 42.666666s42.666667-17.066667 42.666667-42.666666v-256c0-25.6-17.066667-42.666667-42.666667-42.666667z" fill="#ffffff" p-id="2301"></path></svg>