<?xml version="1.0" standalone="no"?><!DOCTYPE svg PUBLIC "-//W3C//DTD SVG 1.1//EN" "http://www.w3.org/Graphics/SVG/1.1/DTD/svg11.dtd"><svg t="1692768712352" class="icon" viewBox="0 0 1024 1024" version="1.1" xmlns="http://www.w3.org/2000/svg" p-id="8422" xmlns:xlink="http://www.w3.org/1999/xlink" width="48" height="48"><path d="M384 597.333333h-256c-25.6 0-42.666667 17.066667-42.666667 42.666667s17.066667 42.666667 42.666667 42.666667h153.6L17.066667 947.2c-17.066667 17.066667-17.066667 42.666667 0 59.733333 17.066667 17.066667 42.666667 17.066667 59.733333 0L341.333333 742.4v153.6c0 25.6 17.066667 42.666667 42.666667 42.666667s42.666667-17.066667 42.666667-42.666667v-256c0-25.6-17.066667-42.666667-42.666667-42.666667z m358.4 85.333334h153.6c25.6 0 42.666667-17.066667 42.666667-42.666667s-17.066667-42.666667-42.666667-42.666667h-256c-25.6 0-42.666667 17.066667-42.666667 42.666667v256c0 25.6 17.066667 42.666667 42.666667 42.666667s42.666667-17.066667 42.666667-42.666667V742.4l264.533333 264.533333c17.066667 17.066667 42.666667 17.066667 59.733333 0 17.066667-17.066667 17.066667-42.666667 0-59.733333L742.4 682.666667zM640 426.666667h256c25.6 0 42.666667-17.066667 42.666667-42.666667s-17.066667-42.666667-42.666667-42.666667H742.4L1006.933333 76.8c17.066667-17.066667 17.066667-42.666667 0-59.733333-17.066667-17.066667-42.666667-17.066667-59.733333 0L682.666667 281.6V128c0-25.6-17.066667-42.666667-42.666667-42.666667s-42.666667 17.066667-42.666667 42.666667v256c0 25.6 17.066667 42.666667 42.666667 42.666667z m-256-341.333334c-25.6 0-42.666667 17.066667-42.666667 42.666667v153.6L76.8 8.533333C59.733333 0 25.6 0 8.533333 8.533333 0 25.6 0 59.733333 8.533333 76.8L281.6 341.333333H128c-25.6 0-42.666667 17.066667-42.666667 42.666667s17.066667 42.666667 42.666667 42.666667h256c25.6 0 42.666667-17.066667 42.666667-42.666667v-256c0-25.6-17.066667-42.666667-42.666667-42.666667z" p-id="8423" fill="#00ff00"></path></svg>